# File created by Blade
# Date/Time:  Wed Apr 08 17:35:20 2015
#---------------------------------------------------------
:version 1.10
:name HOM
:units
  mass 1.0
  length 1.000000
  angle deg
:documentation
     Acclaim Skeleton File
:root
   axis xyz
   order TX TY TZ RX RY RZ
   position 0.000000 0.000000 0.000000
   orientation 0 0 0
:bonedata
   begin
      id 1
      name Spine_dum
      direction 0.000000 1.000000 0.000000
      length 5.893853
      axis 0.0 0.0 0.0 xyz
   end
   begin
      id 2
      name LeftUpLeg_dum
      direction 1.000000 0.000000 0.000000
      length 3.697939
      axis 0.0 0.0 0.0 xyz
   end
   begin
      id 3
      name RightUpLeg_dum
      direction -1.000000 0.000000 0.000000
      length 3.697939
      axis 0.0 0.0 0.0 xyz
   end
   begin
      id 4
      name Spine
      direction 0.000000 1.000000 0.000000
      length 0.000000
      axis 0.0 0.0 0.0 xyz
      dof rx ry rz
   end
   begin
      id 5
      name Spine_dum1
      direction 0.000000 1.000000 0.000000
      length 16.447146
      axis 0.0 0.0 0.0 xyz
   end
   begin
      id 6
      name Spine_dum2
      direction 0.000000 1.000000 0.000000
      length 10.900383
      axis 0.0 0.0 0.0 xyz
   end
   begin
      id 7
      name Spine_dum3
      direction 0.000000 1.000000 0.000000
      length 10.900383
      axis 0.0 0.0 0.0 xyz
   end
   begin
      id 8
      name Head
      direction 0.000000 1.000000 0.000000
      length 4.527550
      axis 0.0 0.0 0.0 xyz
      dof rx ry rz
   end
   begin
      id 9
      name LeftShoulder
      direction 1.000000 0.000000 0.000000
      length 8.219464
      axis 0.0 0.0 -90.0 xyz
      dof rx ry rz
   end
   begin
      id 10
      name LeftArm
      direction 1.000000 0.000000 0.000000
      length 11.094937
      axis 0.0 0.0 -90.0 xyz
      dof rx ry rz
   end
   begin
      id 11
      name LeftForeArm
      direction 1.000000 0.000000 0.000000
      length 9.103875
      axis 0.0 0.0 -90.0 xyz
      dof ry rz rx
   end
   begin
      id 12
      name LeftHand
      direction 0.000000 0.000000 0.000000
      length 0.000000
      axis 0.0 0.0 -90.0 xyz
      dof rx ry rz
   end
   begin
      id 13
      name LeftHand_dum1
      direction 0.000000 0.000000 0.000000
      length 0.000000
      axis 0.0 0.0 -90.0 xyz
   end
   begin
      id 14
      name LeftHand_dum2
      direction 1.000000 0.000000 0.000000
      length 3.937000
      axis 0.0 0.0 -90.0 xyz
   end
   begin
      id 15
      name LeftHandThumb1
      direction 0.000000 0.000000 1.000000
      length 3.937000
      axis 0.0 0.0 -90.0 xyz
      dof rx rz ry
   end
   begin
      id 16
      name RightShoulder
      direction -1.000000 0.000000 0.000000
      length 8.219464
      axis 0.0 0.0 90.0 xyz
      dof rx ry rz
   end
   begin
      id 17
      name RightArm
      direction -1.000000 0.000000 0.000000
      length 11.094937
      axis 0.0 0.0 90.0 xyz
      dof rx ry rz
   end
   begin
      id 18
      name RightForeArm
      direction -1.000000 0.000000 0.000000
      length 9.103875
      axis 0.0 0.0 90.0 xyz
      dof ry rz rx
   end
   begin
      id 19
      name RightHand
      direction 0.000000 0.000000 0.000000
      length 0.000000
      axis 0.0 0.0 90.0 xyz
      dof rx ry rz
   end
   begin
      id 20
      name RightHand_dum1
      direction 0.000000 0.000000 0.000000
      length 0.000000
      axis 0.0 0.0 90.0 xyz
   end
   begin
      id 21
      name RightHand_dum2
      direction -1.000000 0.000000 0.000000
      length 3.937000
      axis 0.0 0.0 90.0 xyz
   end
   begin
      id 22
      name RightHandThumb1
      direction 0.000000 0.000000 1.000000
      length 3.937000
      axis 0.0 0.0 90.0 xyz
      dof rx rz ry
   end
   begin
      id 23
      name LeftUpLeg
      direction 0.000000 -1.000000 0.000000
      length 16.181467
      axis 0.0 0.0 0.0 xyz
      dof rx ry rz
   end
   begin
      id 24
      name LeftLeg
      direction 0.000000 -1.000000 0.000000
      length 16.501392
      axis 0.0 0.0 0.0 xyz
      dof rx ry rz
   end
   begin
      id 25
      name LeftFoot
      direction 0.000000 -0.258819 0.965926
      length 6.408245
      axis 15.0 0.0 0.0 xyz
      dof rx ry rz
   end
   begin
      id 26
      name LeftToeBase
      direction 0.000000 0.000000 1.000000
      length 2.952750
      axis 0.0 0.0 0.0 xyz
      dof rx ry rz
   end
   begin
      id 27
      name RightUpLeg
      direction 0.000000 -1.000000 0.000000
      length 16.181467
      axis 0.0 0.0 0.0 xyz
      dof rx ry rz
   end
   begin
      id 28
      name RightLeg
      direction 0.000000 -1.000000 0.000000
      length 16.501392
      axis 0.0 0.0 0.0 xyz
      dof rx ry rz
   end
   begin
      id 29
      name RightFoot
      direction 0.000000 -0.258819 0.965926
      length 6.408245
      axis 15.0 0.0 0.0 xyz
      dof rx ry rz
   end
   begin
      id 30
      name RightToeBase
      direction 0.000000 0.000000 1.000000
      length 2.952750
      axis 0.0 0.0 0.0 xyz
      dof rx ry rz
   end
:hierarchy
   begin
      root Spine_dum LeftUpLeg_dum RightUpLeg_dum
      Spine_dum Spine
      LeftUpLeg_dum LeftUpLeg
      RightUpLeg_dum RightUpLeg
      Spine Spine_dum1 Spine_dum2 Spine_dum3
      Spine_dum1 Head
      Spine_dum2 LeftShoulder
      Spine_dum3 RightShoulder
      LeftShoulder LeftArm
      LeftArm LeftForeArm
      LeftForeArm LeftHand
      LeftHand LeftHand_dum1 LeftHand_dum2
      LeftHand_dum1 LeftHandThumb1
      RightShoulder RightArm
      RightArm RightForeArm
      RightForeArm RightHand
      RightHand RightHand_dum1 RightHand_dum2
      RightHand_dum1 RightHandThumb1
      LeftUpLeg LeftLeg
      LeftLeg LeftFoot
      LeftFoot LeftToeBase
      RightUpLeg RightLeg
      RightLeg RightFoot
      RightFoot RightToeBase
   end

# File created by Blade
# Date/Time:  Wed Apr 08 17:35:25 2015
# Frame Rate: 120.000 fps
#------------------------------------------------------
:FULLY-SPECIFIED
:DEGREES
691
root 7.598905 36.793576 3.226954 54.813594 -64.245998 -26.042232
Spine -33.023530 -5.940407 13.048411
Head 34.046414 10.954797 9.652904
LeftShoulder -10.939601 24.762813 10.852539
LeftArm 20.433722 24.487625 -76.317378
LeftForeArm 18.698037 0.000000 28.904617
LeftHand -12.819904 -0.000000 -10.710579
LeftHandThumb1 -26.253704 0.000000 33.147579
RightShoulder -41.449913 -53.219842 18.942363
RightArm 54.741200 -22.922201 46.868243
RightForeArm 3.913765 -0.000000 25.589294
RightHand -1.395605 -0.000000 25.930237
RightHandThumb1 -24.326973 -0.000000 -32.862282
LeftUpLeg -40.783402 7.073446 1.976218
LeftLeg 24.474308 -0.000000 -0.000000
LeftFoot -13.757899 0.357671 -4.979041
LeftToeBase 9.083443 -0.000000 -0.000000
RightUpLeg -120.103382 5.527422 27.510819
RightLeg 104.075578 -0.000000 -0.000000
RightFoot -11.268846 -21.903207 3.973888
RightToeBase -32.245499 -0.000000 0.000000
692
root 7.604436 36.793903 3.232154 54.900311 -64.309681 -26.112697
Spine -33.044797 -5.952452 13.039933
Head 34.039911 10.885883 9.650515
LeftShoulder -10.926454 24.745045 10.873773
LeftArm 20.454628 24.555265 -76.317509
LeftForeArm 18.634227 -0.000000 28.897542
LeftHand -12.795729 -0.000000 -10.615079
LeftHandThumb1 -26.253704 0.000000 33.147579
RightShoulder -41.430979 -53.233717 18.911687
RightArm 54.758376 -22.988956 46.760587
RightForeArm 3.820735 -0.000000 25.574170
RightHand -1.432914 -0.000000 26.066494
RightHandThumb1 -24.326973 -0.000000 -32.862282
LeftUpLeg -40.820367 7.154935 1.911638
LeftLeg 24.498595 -0.000000 -0.000000
LeftFoot -13.746881 0.353933 -4.973467
LeftToeBase 9.091140 -0.000000 -0.000000
RightUpLeg -120.086739 5.437029 27.516751
RightLeg 103.911681 -0.000000 -0.000000
RightFoot -11.673927 -22.110157 3.960513
RightToeBase -32.488708 -0.000000 0.000000
693
root 7.608769 36.794004 3.238039 55.033553 -64.402731 -26.221858
Spine -33.075790 -5.932371 13.005322
Head 34.027621 10.794133 9.657065
LeftShoulder -10.928187 24.733217 10.902742
LeftArm 20.495155 24.593707 -76.329326
LeftForeArm 18.705870 -0.000000 28.862758
LeftHand -12.799473 -0.000000 -10.625261
LeftHandThumb1 -26.253704 0.000000 33.147579
RightShoulder -41.452529 -53.237563 18.919783
RightArm 54.766112 -23.050274 46.624564
RightForeArm 3.809289 0.000000 25.602576
RightHand -1.437000 -0.000000 26.044938
RightHandThumb1 -24.326973 -0.000000 -32.862282
LeftUpLeg -40.843900 7.202153 1.865630
LeftLeg 24.503862 -0.000000 -0.000000
LeftFoot -13.736788 0.432403 -4.916479
LeftToeBase 8.988642 -0.000000 -0.000000
RightUpLeg -120.079353 5.390090 27.511804
RightLeg 103.792610 -0.000000 -0.000000
RightFoot -11.970675 -22.342640 3.811071
RightToeBase -32.367325 -0.000000 0.000000
694
root 7.612974 36.793658 3.242901 55.180270 -64.491110 -26.348511
Spine -33.104320 -5.906656 12.985482
Head 34.006538 10.697664 9.627344
LeftShoulder -10.923835 24.684880 10.921822
LeftArm 20.505674 24.653301 -76.321510
LeftForeArm 18.741761 0.000000 28.827576
LeftHand -12.801725 -0.000000 -10.682144
LeftHandThumb1 -26.253704 0.000000 33.147579
RightShoulder -41.475552 -53.254107 18.914910
RightArm 54.770430 -23.076321 46.560174
RightForeArm 3.773044 -0.000000 25.609408
RightHand -1.429461 -0.000000 26.061872
RightHandThumb1 -24.326973 -0.000000 -32.862282
LeftUpLeg -40.862269 7.200812 1.857768
LeftLeg 24.513247 -0.000000 -0.000000
LeftFoot -13.750453 0.546478 -4.920254
LeftToeBase 8.942063 -0.000000 -0.000000
RightUpLeg -120.088199 5.337094 27.494727
RightLeg 103.711046 -0.000000 -0.000000
RightFoot -12.160875 -22.487413 3.715610
RightToeBase -32.584898 -0.000000 0.000000
695
root 7.615124 36.792862 3.248326 55.336975 -64.573577 -26.503232
Spine -33.121708 -5.868061 12.974265
Head 33.978664 10.589033 9.581876
LeftShoulder -10.919466 24.671615 10.932290
LeftArm 20.533593 24.675282 -76.330445
LeftForeArm 18.715221 -0.000000 28.788914
LeftHand -12.804539 -0.000000 -10.689493
LeftHandThumb1 -26.253704 0.000000 33.147579
RightShoulder -41.487428 -53.261136 18.900542
RightArm 54.745113 -23.109047 46.512804
RightForeArm 3.763029 0.000000 25.634369
RightHand -1.423590 -0.000000 26.149658
RightHandThumb1 -24.326973 -0.000000 -32.862282
LeftUpLeg -40.859748 7.175762 1.876937
LeftLeg 24.522492 -0.000000 -0.000000
LeftFoot -13.755789 0.709152 -4.890789
LeftToeBase 8.825560 -0.000000 -0.000000
RightUpLeg -120.090412 5.280852 27.463689
RightLeg 103.684352 -0.000000 -0.000000
RightFoot -12.376476 -22.524440 3.713189
RightToeBase -32.608451 -0.000000 0.000000
696
root 7.616476 36.791874 3.252433 55.524227 -64.661208 -26.687284
Spine -33.137962 -5.819148 12.963806
Head 33.942836 10.472371 9.534343
LeftShoulder -10.919792 24.648791 10.934164
LeftArm 20.530403 24.652775 -76.349795
LeftForeArm 18.873444 0.000000 28.763473
LeftHand -12.789384 -0.000000 -10.814972
LeftHandThumb1 -26.253704 0.000000 33.147579
RightShoulder -41.516048 -53.255273 18.902390
RightArm 54.702124 -23.127212 46.484509
RightForeArm 3.763271 -0.000000 25.676955
RightHand -1.393170 -0.000000 26.221383
RightHandThumb1 -24.326973 -0.000000 -32.862282
LeftUpLeg -40.854189 7.153338 1.907194
LeftLeg 24.524614 -0.000000 -0.000000
LeftFoot -13.769558 0.881177 -4.845953
LeftToeBase 8.703683 -0.000000 -0.000000
RightUpLeg -120.094844 5.256076 27.412161
RightLeg 103.690061 -0.000000 -0.000000
RightFoot -12.534517 -22.566660 3.642463
RightToeBase -32.498104 -0.000000 0.000000
697
root 7.617033 36.791169 3.256007 55.760549 -64.767755 -26.917642
Spine -33.162611 -5.757127 12.954354
Head 33.915366 10.380950 9.512785
LeftShoulder -10.923653 24.624143 10.936151
LeftArm 20.512790 24.662327 -76.351521
LeftForeArm 18.881913 -0.000000 28.752265
LeftHand -12.787777 -0.000000 -10.858730
LeftHandThumb1 -26.253704 0.000000 33.147579
RightShoulder -41.548675 -53.276920 18.923405
RightArm 54.676074 -23.119537 46.465904
RightForeArm 3.830615 -0.000000 25.699424
RightHand -1.353069 0.000000 26.233369
RightHandThumb1 -24.326973 -0.000000 -32.862282
LeftUpLeg -40.854167 7.167186 1.928066
LeftLeg 24.530942 -0.000000 -0.000000
LeftFoot -13.786540 1.046861 -4.797973
LeftToeBase 8.581135 -0.000000 -0.000000
RightUpLeg -120.103738 5.247717 27.340699
RightLeg 103.736295 -0.000000 -0.000000
RightFoot -12.676980 -22.443696 3.669331
RightToeBase -32.491387 -0.000000 0.000000
